<svg height="512" viewBox="0 0 152 152" width="512" xmlns="http://www.w3.org/2000/svg"><g id="Layer_2" data-name="Layer 2"><g id="Black_Icon" data-name="Black Icon"><g id="_07.Linkedin" data-name="07.Linkedin"><path id="Icon" d="m140 0h-128a12 12 0 0 0 -12 12v128a12 12 0 0 0 12 12h128a12 12 0 0 0 12-12v-128a12 12 0 0 0 -12-12zm-86.1 116h-16.58v-53.41h16.58zm-8.3-60.7a9.65 9.65 0 1 1 9.61-9.7 9.68 9.68 0 0 1 -9.61 9.7zm70.4 60.7h-16.57v-26c0-6.2-.12-14.15-8.62-14.15s-10 6.74-10 13.7v26.45h-16.51v-53.41h15.91v7.28h.23c2.21-4.2 7.62-8.62 15.69-8.62 16.78 0 19.87 11 19.87 25.41z"/></g></g></g></svg>